# xmcd CD database file
#
# Track frame offsets:
#	150
#	21490
#	31370
#	52892
#	67930
#	98605
#	116057
#	130235
#	146375
#	160392
#	184932
#	197742
#
# Disc length: 3017 seconds
#
# Revision: 2
# Processed by: cddbd v1.4b41PL1 Copyright (c) Steve Scherf et al.
# Submitted via: Feurio! 1.52 - http://www.feurio.com
#
DISCID=a40bc70c
DTITLE=Stephen Quigg - Voice Of My Island
DYEAR=1900
DGENRE=
TTITLE0=Steal away
TTITLE1=The galant murray
TTITLE2=Voice of my island
TTITLE3=Almost every circumstance
TTITLE4=Strong women rule us all with their tears
TTITLE5=Freewheeling now
TTITLE6=The work of the weavers
TTITLE7=Come by the hills
TTITLE8=Whatever you say, say nothing
TTITLE9=Anie McKelvie
TTITLE10=Willies´s gane tae melville castle
TTITLE11=The last leviathan
EXTD=
EXTT0=
EXTT1=
EXTT2=
EXTT3=
EXTT4=
EXTT5=
EXTT6=
EXTT7=
EXTT8=
EXTT9=
EXTT10=
EXTT11=
PLAYORDER=
